<?xml version="1.0" standalone="no"?>
<!DOCTYPE svg PUBLIC "-//W3C//DTD SVG 20010904//EN"
 "http://www.w3.org/TR/2001/REC-SVG-20010904/DTD/svg10.dtd">
<svg version="1.0" xmlns="http://www.w3.org/2000/svg"
 width="847.000000pt" height="337.000000pt" viewBox="0 0 847.000000 337.000000"
 preserveAspectRatio="xMidYMid meet">

<g transform="translate(0.000000,337.000000) scale(0.100000,-0.100000)"
fill="#000000" stroke="none">
<path d="M0 1685 l0 -1685 4235 0 4235 0 0 1685 0 1685 -4235 0 -4235 0 0
-1685z m5623 1440 c69 -14 174 -61 216 -96 21 -17 22 -22 12 -47 -7 -15 -20
-38 -30 -51 l-18 -24 -31 22 c-165 117 -401 121 -554 8 -38 -28 -94 -111 -118
-175 -31 -81 -43 -187 -31 -280 27 -211 124 -332 301 -378 78 -20 235 -15 318
11 l52 16 0 164 c0 91 0 168 0 171 0 3 -61 5 -135 5 l-135 -2 0 56 0 55 204 0
204 0 -2 -257 -2 -257 -62 -29 c-34 -16 -103 -37 -154 -48 -349 -72 -623 71
-712 371 -9 30 -19 98 -23 150 -19 303 147 552 410 616 71 17 208 17 290 -1z
m-4603 -57 l0 -63 -200 1 -200 1 0 -507 0 -507 -37 -7 c-21 -3 -53 -6 -70 -6
l-33 0 0 515 0 516 -195 -3 -195 -3 0 56 c0 31 3 59 7 62 3 4 213 7 465 7
l458 0 0 -62z m330 -320 c-1 -413 4 -461 53 -533 35 -51 94 -93 156 -111 67
-20 196 -14 259 11 63 26 127 103 152 182 19 60 20 93 20 449 l0 384 71 0 70
0 -3 -407 c-4 -399 -4 -409 -27 -472 -32 -85 -103 -176 -167 -212 -64 -37
-190 -69 -266 -69 -72 0 -189 25 -242 52 -56 29 -134 105 -161 159 -51 100
-55 137 -55 558 l0 391 70 0 70 0 0 -382z m1666 362 c1 -8 2 -238 2 -510 l2
-495 285 3 285 3 0 -63 0 -63 -358 0 -358 0 2 40 c1 22 2 280 3 573 l1 533 68
-3 c51 -2 67 -7 68 -18z m884 -390 l5 -405 33 -67 c52 -106 143 -158 273 -158
169 0 259 61 308 208 20 58 21 84 21 447 l0 385 71 0 70 0 -3 -407 c-4 -390
-5 -411 -26 -475 -44 -131 -144 -222 -286 -258 -236 -60 -462 19 -549 193 -53
105 -57 138 -57 551 0 209 0 385 0 389 0 5 30 7 68 5 l67 -3 5 -405z m2941
-20 c98 -234 206 -489 239 -567 33 -78 60 -143 60 -145 0 -2 -33 -4 -73 -4
l-72 -1 -60 153 -60 154 -286 0 -285 0 -60 -152 -60 -152 -72 -1 c-45 0 -71 4
-68 10 2 6 36 84 74 175 38 91 113 269 167 395 87 205 201 480 226 543 8 21
14 23 79 20 l71 -3 180 -425z m1039 419 c123 -20 207 -73 255 -161 24 -44 30
-68 33 -139 5 -98 -6 -142 -50 -207 -32 -46 -109 -96 -166 -107 l-36 -7 40
-17 c47 -21 51 -28 168 -303 l84 -198 -76 0 -77 0 -64 153 c-113 266 -126 292
-162 318 -32 23 -42 24 -191 26 l-158 2 0 -250 0 -249 -70 0 -70 0 0 575 0
575 238 0 c130 0 266 -5 302 -11z m-4735 -1614 c70 -15 168 -58 214 -94 l25
-19 -32 -50 -33 -50 -29 28 c-127 119 -380 116 -505 -6 -156 -152 -165 -490
-17 -642 57 -58 119 -88 211 -102 72 -12 183 -2 263 22 l38 11 0 151 0 151
-130 -3 -130 -3 0 55 0 56 188 0 189 0 0 -236 0 -235 -26 -13 c-62 -32 -201
-68 -283 -73 -155 -10 -288 33 -390 126 -114 105 -164 246 -155 436 10 223
104 375 279 454 111 51 204 61 323 36z m3375 -15 c68 -22 167 -81 176 -104 3
-8 -9 -34 -27 -59 l-31 -45 -38 38 c-86 86 -264 112 -387 56 -140 -64 -213
-200 -213 -396 0 -188 62 -308 193 -378 48 -25 61 -27 162 -27 123 1 161 13
247 79 l48 36 30 -42 c16 -22 30 -44 30 -49 0 -13 -96 -79 -155 -104 -134 -60
-282 -57 -417 7 -179 85 -268 246 -268 485 0 125 30 230 91 322 118 177 348
251 559 181z m1283 -45 c9 -22 68 -161 131 -310 124 -293 276 -661 276 -669 0
-2 -8 -3 -17 -1 -10 2 -41 4 -69 4 l-50 1 -50 123 c-27 67 -48 128 -48 135 1
9 -56 12 -256 12 l-257 0 -57 -137 -57 -138 -63 3 -64 4 28 61 c45 99 313 738
370 884 l32 82 57 3 c63 3 71 -1 94 -57z m-6933 3 l0 -53 -260 3 -260 3 0
-176 0 -175 235 0 235 0 0 -55 0 -55 -235 0 -235 0 0 -180 0 -180 260 0 260 0
0 -57 0 -58 -317 3 c-174 1 -317 4 -318 5 0 1 1 233 3 515 l3 512 315 0 314 0
0 -52z m583 -306 c141 -196 272 -378 290 -404 17 -26 34 -48 37 -48 3 0 5 182
5 405 l-1 405 58 0 58 0 0 -517 0 -518 -37 2 c-21 1 -45 2 -54 2 -10 1 -61 64
-120 149 -198 283 -481 677 -487 680 -4 1 -6 -187 -4 -419 l2 -420 -61 3 -62
3 4 517 4 518 55 -1 55 0 258 -357z m2694 261 c232 -557 383 -925 383 -931 0
-4 -29 -6 -63 -4 l-64 4 -51 131 -50 132 -259 3 -258 2 -55 -140 -55 -140 -62
1 c-35 1 -63 3 -63 5 0 2 22 54 49 116 27 62 81 190 119 283 64 154 109 262
228 542 l39 93 61 0 60 0 41 -97z m683 -363 l0 -460 250 0 250 0 0 -54 c0 -43
-4 -55 -17 -58 -15 -4 -342 -3 -558 1 l-50 1 0 515 0 515 63 0 62 0 0 -460z
m808 -56 l-3 -517 -47 1 c-27 0 -55 1 -63 1 -13 1 -15 65 -15 516 l0 515 65 0
65 0 -2 -516z m1402 -1 l0 -518 -60 3 -60 4 0 242 c0 134 -3 365 -7 514 l-6
272 66 0 67 0 0 -517z"/>
<path d="M6580 2967 c0 -8 -27 -78 -59 -158 -33 -79 -84 -204 -114 -276 l-54
-133 234 0 c219 0 235 1 230 18 -3 9 -53 134 -111 277 -58 142 -106 265 -106
272 0 7 -4 13 -10 13 -5 0 -10 -6 -10 -13z"/>
<path d="M7480 2797 l0 -212 188 3 c197 3 238 10 288 48 79 59 98 192 38 276
-62 88 -94 97 -336 98 l-178 0 0 -213z"/>
<path d="M7707 1343 c-3 -16 -49 -133 -101 -260 -53 -128 -96 -235 -96 -238 0
-3 93 -5 206 -5 l206 0 -7 27 c-3 14 -46 125 -96 245 -49 119 -89 227 -89 238
0 30 -17 24 -23 -7z"/>
<path d="M8024 640 c9 -32 39 -101 43 -97 2 3 -8 29 -22 58 -14 30 -23 47 -21
39z"/>
<path d="M7350 532 c0 -7 -9 -21 -20 -32 -16 -16 -17 -20 -5 -20 15 0 40 48
30 58 -3 3 -5 0 -5 -6z"/>
<path d="M8160 535 c0 -5 5 -17 10 -25 5 -8 10 -10 10 -5 0 6 -5 17 -10 25 -5
8 -10 11 -10 5z"/>
<path d="M8075 517 c3 -10 5 -23 5 -28 0 -5 26 -8 58 -7 l57 2 -51 3 c-41 3
-54 9 -63 26 -7 14 -10 15 -6 4z"/>
<path d="M4015 1298 c-15 -40 -63 -157 -106 -260 -44 -102 -79 -189 -79 -192
0 -3 95 -6 210 -6 128 0 210 4 210 10 0 8 -198 510 -205 518 -1 1 -14 -31 -30
-70z"/>
<path d="M5532 523 l-2 -43 48 2 47 1 -42 4 c-40 4 -42 6 -46 41 l-4 37 -1
-42z"/>
<path d="M6933 745 c0 -44 2 -61 4 -37 2 23 2 59 0 80 -2 20 -4 1 -4 -43z"/>
<path d="M6931 548 c0 -38 2 -68 7 -68 4 0 6 21 4 48 -5 82 -9 89 -11 20z"/>
<path d="M7020 531 c0 -33 -4 -40 -22 -44 -20 -4 -19 -4 5 -6 26 -1 27 1 27
44 0 25 -2 45 -5 45 -3 0 -5 -18 -5 -39z"/>
</g>
</svg>
